<?xml version="1.0" encoding="utf-8"?>
<!-- Generator: Adobe Illustrator 22.0.1, SVG Export Plug-In . SVG Version: 6.00 Build 0)  -->
<svg version="1.1" id="Layer_1" xmlns="http://www.w3.org/2000/svg" xmlns:xlink="http://www.w3.org/1999/xlink" x="0px" y="0px"
	 viewBox="0 0 119.8 119.6" style="enable-background:new 0 0 119.8 119.6;" xml:space="preserve">
<style type="text/css">
	.st0{fill:url(#SVGID_1_);}
	.st1{fill:url(#SVGID_2_);}
	.st2{fill:url(#SVGID_3_);}
	.st3{fill:url(#SVGID_4_);}
	.st4{fill:#E7DBC4;}
	.st5{fill:#FFF9EB;}
	.st6{fill:url(#SVGID_5_);}
</style>
<g>
	<g>
		<linearGradient id="SVGID_1_" gradientUnits="userSpaceOnUse" x1="90.4116" y1="119.7204" x2="90.4116" y2="34.5251">
			<stop  offset="0" style="stop-color:#761618"/>
			<stop  offset="0.5" style="stop-color:#E45E2B"/>
			<stop  offset="1" style="stop-color:#F39D1D"/>
		</linearGradient>
		<path class="st0" d="M90.4,80.4l-1.7-45.9H61.1v85.2h24.3c19,0,34.4-15.4,34.4-34.4V34.5H92.1L90.4,80.4z"/>
		<linearGradient id="SVGID_2_" gradientUnits="userSpaceOnUse" x1="46.4315" y1="119.7204" x2="46.4315" y2="34.5251">
			<stop  offset="0" style="stop-color:#761618"/>
			<stop  offset="0.6529" style="stop-color:#E45E2B"/>
			<stop  offset="1" style="stop-color:#F39D1D"/>
		</linearGradient>
		<path class="st1" d="M44.7,34.5c-4,6.5-7.3,12-12.9,12.1v73c0.9,0.1,1.7,0.1,2.6,0.1h25.5h1.2V34.5H44.7z"/>
		<linearGradient id="SVGID_3_" gradientUnits="userSpaceOnUse" x1="8.7381" y1="115.2324" x2="8.7381" y2="34.5251">
			<stop  offset="0" style="stop-color:#761618"/>
			<stop  offset="0.6529" style="stop-color:#E45E2B"/>
			<stop  offset="1" style="stop-color:#F39D1D"/>
		</linearGradient>
		<path class="st2" d="M17.5,115.2V34.5H0v50.8C0,98.2,7.1,109.3,17.5,115.2z"/>
		<linearGradient id="SVGID_4_" gradientUnits="userSpaceOnUse" x1="24.6182" y1="119.5873" x2="24.6182" y2="34.5251">
			<stop  offset="0" style="stop-color:#761618"/>
			<stop  offset="0.7767" style="stop-color:#E45E2B"/>
			<stop  offset="1" style="stop-color:#F39D1D"/>
		</linearGradient>
		<path class="st3" d="M18.2,34.5h-0.7v80.7c4.3,2.4,9.1,4,14.3,4.4v-73c-0.1,0-0.1,0-0.2,0C25.5,46.6,21.2,41,18.2,34.5z"/>
		<path class="st4" d="M17.5,33c-3.4-7.8-5.2-16.3-6.5-18.3c-0.9-1.4-2.6-1.2-4.4-0.5C2.5,19.8,0,26.8,0,34.4v0.1h17.4h0.7
			C17.9,34,17.7,33.5,17.5,33z"/>
		<path class="st5" d="M85.3,0H61.1h-1.2H34.4c-0.9,0-1.8,0.1-2.6,0.1c-5.2,0.4-10,1.9-14.3,4.4c-4.3,2.4-7.9,5.7-10.8,9.7
			c1.8-0.7,3.5-0.8,4.4,0.5c1.3,2,3.1,10.5,6.5,18.3c0.2,0.5,0.5,1,0.7,1.5c3.1,6.5,7.4,12.1,13.5,12.1c0.1,0,0.1,0,0.2,0
			c5.6-0.1,8.9-5.6,12.9-12.1c3.9-6.4,8.5-13.7,16.4-17.8c3.6-1.8,7.9-3,13.1-3.1c24.3-0.6,39.1,6.2,43.1,8.3
			C112.4,9.1,99.9,0,85.3,0z"/>
		<linearGradient id="SVGID_5_" gradientUnits="userSpaceOnUse" x1="44.6521" y1="46.9943" x2="119.7351" y2="46.9943">
			<stop  offset="0" style="stop-color:#E1D2B5"/>
			<stop  offset="1" style="stop-color:#F4E5C8"/>
		</linearGradient>
		<path class="st6" d="M117.4,21.9c-4-2.1-18.8-8.9-43.1-8.3c-5.3,0.1-9.5,1.3-13.1,3.1c-8,4.1-12.5,11.4-16.4,17.8h16.4h27.6
			l1.7,45.9l1.7-45.9h27.6v-0.1C119.7,30,118.9,25.8,117.4,21.9z"/>
	</g>
	<g>
		<path class="st5" d="M26.1,68.8h0.2H57h30h1.5h7.6c1.6,0,2.9-1.3,2.9-2.9c0-1.6-1.3-2.9-2.9-2.9h-7.4h-1.9H57H26.3h-0.2
			c-1.6,0-2.9,1.3-2.9,2.9C23.2,67.5,24.5,68.8,26.1,68.8z"/>
		<path class="st5" d="M96.1,74.9h-7.8h-1H57H26.3h-0.2c-1.6,0-2.9,1.3-2.9,2.9v0c0,1.6,1.3,2.9,2.9,2.9h0.2H57h30.5h0.6h8.1
			c1.6,0,2.9-1.3,2.9-2.9v0C99,76.2,97.7,74.9,96.1,74.9z"/>
		<path class="st5" d="M66.3,86.6H57H26.3h-0.2c-1.6,0-2.9,1.3-2.9,2.9c0,1.6,1.3,2.9,2.9,2.9h0.2H57h9.3c1.6,0,2.9-1.3,2.9-2.9
			C69.2,87.9,67.9,86.6,66.3,86.6z"/>
	</g>
</g>
</svg>
